<!-- frontend/public/favicon.svg -->
<svg width="64" height="64" viewBox="0 0 64 64" fill="none" xmlns="http://www.w3.org/2000/svg">
  <!-- Gradient background -->
  <defs>
    <linearGradient id="grad" x1="0%" y1="0%" x2="100%" y2="100%">
      <stop offset="0%" style="stop-color:#9333ea;stop-opacity:1" />
      <stop offset="100%" style="stop-color:#4f46e5;stop-opacity:1" />
    </linearGradient>
  </defs>
  
  <!-- Rounded square background -->
  <rect width="64" height="64" rx="12" fill="url(#grad)"/>
  
  <!-- Sparkles icon (center star) -->
  <path d="M32 12 L34 22 L44 24 L34 26 L32 36 L30 26 L20 24 L30 22 Z" fill="white"/>
  
  <!-- Small sparkle (top right) -->
  <path d="M46 18 L47 21 L50 22 L47 23 L46 26 L45 23 L42 22 L45 21 Z" fill="white" opacity="0.8"/>
  
  <!-- Small sparkle (bottom left) -->
  <path d="M18 46 L19 49 L22 50 L19 51 L18 54 L17 51 L14 50 L17 49 Z" fill="white" opacity="0.8"/>
  
  <!-- Tiny sparkle (top left) -->
  <circle cx="16" cy="16" r="1.5" fill="white" opacity="0.6"/>
  
  <!-- Tiny sparkle (bottom right) -->
  <circle cx="48" cy="48" r="1.5" fill="white" opacity="0.6"/>
</svg>